<svg viewBox="0 0 100 88" fill="none" xmlns="http://www.w3.org/2000/svg">
  <path d="M13 64V39L50 11L87 39V64" stroke="#908B6A" stroke-width="2" stroke-linecap="round" stroke-linejoin="round"/>
  <path d="M50 56V33" stroke="#908B6A" stroke-width="2" stroke-linecap="round" stroke-linejoin="round"/>
  <ellipse cx="50" cy="30.5" rx="3" ry="2.2" fill="#908B6A"/>
  <path d="M43.5 56H56.5" stroke="#908B6A" stroke-width="2" stroke-linecap="round" stroke-linejoin="round"/>
  <path d="M45.5 56V58.5M54.5 56V58.5" stroke="#908B6A" stroke-width="1.6" stroke-linecap="round" stroke-linejoin="round"/>
  <path d="M41 58.5H59" stroke="#908B6A" stroke-width="1.8" stroke-linecap="round" stroke-linejoin="round"/>
  <path d="M27 33H73" stroke="#908B6A" stroke-width="2" stroke-linecap="round" stroke-linejoin="round"/>
  <path d="M27 33L25 41M27 33V41M27 33L29 41" stroke="#908B6A" stroke-width="1.35" stroke-linecap="round" stroke-linejoin="round"/>
  <path d="M19.5 41H34.5L32 48.5H22L19.5 41Z" stroke="#908B6A" stroke-width="1.65" stroke-linecap="round" stroke-linejoin="round"/>
  <path d="M73 33L71 41M73 33V41M73 33L75 41" stroke="#908B6A" stroke-width="1.35" stroke-linecap="round" stroke-linejoin="round"/>
  <path d="M65.5 41H80.5L78 48.5H68L65.5 41Z" stroke="#908B6A" stroke-width="1.65" stroke-linecap="round" stroke-linejoin="round"/>
</svg>
